<svg id="Layer_1" data-name="Layer 1" xmlns="http://www.w3.org/2000/svg" viewBox="0 0 401.99 94.74"><defs><style>.cls-1{fill:#2aa160;}.cls-2{fill:#3d68c1;}</style></defs><path class="cls-1" d="M258,320a.71.71,0,0,0,.58-.83.72.72,0,0,0-.84-.58A.72.72,0,1,0,258,320Z" transform="translate(-230.68 -252.17)"/><path class="cls-1" d="M253.56,314.51a.75.75,0,0,0,.6-.86.74.74,0,1,0-.6.86Z" transform="translate(-230.68 -252.17)"/><circle class="cls-1" cx="19.81" cy="55.17" r="0.74"/><circle class="cls-1" cx="18.57" cy="48.21" r="0.75"/><path class="cls-1" d="M249.92,294.07a.75.75,0,0,0-.27-1.48.74.74,0,0,0-.6.87A.75.75,0,0,0,249.92,294.07Z" transform="translate(-230.68 -252.17)"/><path class="cls-1" d="M252.18,287.37a.76.76,0,0,0,.61-.87.75.75,0,1,0-.61.87Z" transform="translate(-230.68 -252.17)"/><path class="cls-1" d="M256,281.44a.75.75,0,1,0-.87-.61A.75.75,0,0,0,256,281.44Z" transform="translate(-230.68 -252.17)"/><circle class="cls-1" cx="30.44" cy="23.75" r="0.75"/><circle class="cls-1" cx="36.68" cy="20.41" r="0.75"/><circle class="cls-1" cx="43.55" cy="18.73" r="0.74"/><path class="cls-1" d="M281.44,271.72a.74.74,0,0,0,.59-.86.74.74,0,0,0-1.45.26A.75.75,0,0,0,281.44,271.72Z" transform="translate(-230.68 -252.17)"/><path class="cls-1" d="M288.27,273.56a.74.74,0,0,0,.59-.86.74.74,0,0,0-1.45.26A.75.75,0,0,0,288.27,273.56Z" transform="translate(-230.68 -252.17)"/><path class="cls-1" d="M294.42,277a.72.72,0,1,0-.83-.58A.71.71,0,0,0,294.42,277Z" transform="translate(-230.68 -252.17)"/><path class="cls-1" d="M299.52,281.92a.72.72,0,1,0-.83-.58A.71.71,0,0,0,299.52,281.92Z" transform="translate(-230.68 -252.17)"/><path class="cls-1" d="M266.14,332a1.21,1.21,0,1,0-1.4-1A1.21,1.21,0,0,0,266.14,332Z" transform="translate(-230.68 -252.17)"/><path class="cls-1" d="M271.82,334.34a1.21,1.21,0,1,0-1.4-1A1.21,1.21,0,0,0,271.82,334.34Z" transform="translate(-230.68 -252.17)"/><path class="cls-1" d="M277.87,335.52a1.21,1.21,0,1,0-1.39-1A1.21,1.21,0,0,0,277.87,335.52Z" transform="translate(-230.68 -252.17)"/><path class="cls-1" d="M284.73,335a1.2,1.2,0,1,0-1.4-1A1.19,1.19,0,0,0,284.73,335Z" transform="translate(-230.68 -252.17)"/><path class="cls-1" d="M291.53,333.13a1.2,1.2,0,1,0-1.4-1A1.2,1.2,0,0,0,291.53,333.13Z" transform="translate(-230.68 -252.17)"/><path class="cls-1" d="M259.77,328.9a1.22,1.22,0,1,0-1.42-1A1.22,1.22,0,0,0,259.77,328.9Z" transform="translate(-230.68 -252.17)"/><path class="cls-1" d="M254.18,324.55a1.22,1.22,0,1,0-1.41-1A1.21,1.21,0,0,0,254.18,324.55Z" transform="translate(-230.68 -252.17)"/><path class="cls-1" d="M249.62,319.14a1.22,1.22,0,1,0-1.42-1A1.23,1.23,0,0,0,249.62,319.14Z" transform="translate(-230.68 -252.17)"/><path class="cls-1" d="M246.29,312.91a1.23,1.23,0,1,0-1.44-1A1.23,1.23,0,0,0,246.29,312.91Z" transform="translate(-230.68 -252.17)"/><path class="cls-1" d="M244.32,306.11a1.23,1.23,0,1,0-1.43-1A1.23,1.23,0,0,0,244.32,306.11Z" transform="translate(-230.68 -252.17)"/><path class="cls-1" d="M243.81,299.05a1.23,1.23,0,1,0-1.43-1A1.23,1.23,0,0,0,243.81,299.05Z" transform="translate(-230.68 -252.17)"/><path class="cls-1" d="M244.78,292.05a1.25,1.25,0,1,0-1.45-1A1.25,1.25,0,0,0,244.78,292.05Z" transform="translate(-230.68 -252.17)"/><path class="cls-1" d="M247.19,285.4a1.25,1.25,0,1,0-1.45-1A1.26,1.26,0,0,0,247.19,285.4Z" transform="translate(-230.68 -252.17)"/><path class="cls-1" d="M250.93,279.38a1.25,1.25,0,1,0-1.45-1A1.24,1.24,0,0,0,250.93,279.38Z" transform="translate(-230.68 -252.17)"/><path class="cls-1" d="M255.84,274.28a1.25,1.25,0,1,0-1.45-1A1.25,1.25,0,0,0,255.84,274.28Z" transform="translate(-230.68 -252.17)"/><path class="cls-1" d="M261.7,270.31a1.25,1.25,0,1,0-1.45-1A1.25,1.25,0,0,0,261.7,270.31Z" transform="translate(-230.68 -252.17)"/><circle class="cls-1" cx="37.35" cy="14.24" r="1.24"/><circle class="cls-1" cx="44.32" cy="12.99" r="1.24"/><path class="cls-1" d="M282.3,266.62a1.24,1.24,0,1,0-1.43-1A1.24,1.24,0,0,0,282.3,266.62Z" transform="translate(-230.68 -252.17)"/><path class="cls-1" d="M289.17,268.3a1.22,1.22,0,1,0-1.42-1A1.23,1.23,0,0,0,289.17,268.3Z" transform="translate(-230.68 -252.17)"/><path class="cls-1" d="M295.54,271.39a1.22,1.22,0,1,0-1.42-1A1.22,1.22,0,0,0,295.54,271.39Z" transform="translate(-230.68 -252.17)"/><path class="cls-1" d="M301.13,275.74a1.22,1.22,0,1,0-1.42-1A1.22,1.22,0,0,0,301.13,275.74Z" transform="translate(-230.68 -252.17)"/><path class="cls-1" d="M296.36,335.45a1.69,1.69,0,1,0-2-1.36A1.68,1.68,0,0,0,296.36,335.45Z" transform="translate(-230.68 -252.17)"/><path class="cls-1" d="M289.84,338.22a1.69,1.69,0,1,0-2-1.37A1.68,1.68,0,0,0,289.84,338.22Z" transform="translate(-230.68 -252.17)"/><path class="cls-1" d="M282.93,339.77a1.69,1.69,0,1,0-2-1.36A1.68,1.68,0,0,0,282.93,339.77Z" transform="translate(-230.68 -252.17)"/><path class="cls-1" d="M275.85,340.09a1.71,1.71,0,1,0-2-1.38A1.71,1.71,0,0,0,275.85,340.09Z" transform="translate(-230.68 -252.17)"/><path class="cls-1" d="M268.84,339.11a1.7,1.7,0,1,0-2-1.37A1.71,1.71,0,0,0,268.84,339.11Z" transform="translate(-230.68 -252.17)"/><path class="cls-1" d="M262.11,336.91a1.71,1.71,0,1,0-.6-3.36,1.71,1.71,0,1,0,.6,3.36Z" transform="translate(-230.68 -252.17)"/><path class="cls-1" d="M255.88,333.55a1.72,1.72,0,1,0-2-1.39A1.72,1.72,0,0,0,255.88,333.55Z" transform="translate(-230.68 -252.17)"/><path class="cls-1" d="M250.36,329.12a1.72,1.72,0,1,0-2-1.4A1.73,1.73,0,0,0,250.36,329.12Z" transform="translate(-230.68 -252.17)"/><path class="cls-1" d="M245.71,323.77a1.72,1.72,0,1,0-2-1.39A1.73,1.73,0,0,0,245.71,323.77Z" transform="translate(-230.68 -252.17)"/><circle class="cls-1" cx="11.11" cy="63.81" r="1.74"/><circle class="cls-1" cx="8.64" cy="57.17" r="1.74"/><circle class="cls-1" cx="7.4" cy="50.2" r="1.74"/><circle class="cls-1" cx="7.42" cy="43.12" r="1.74"/><circle class="cls-1" cx="8.7" cy="36.15" r="1.74"/><path class="cls-1" d="M242.2,283.43a1.76,1.76,0,1,0-2-1.42A1.75,1.75,0,0,0,242.2,283.43Z" transform="translate(-230.68 -252.17)"/><path class="cls-1" d="M245.85,277.36a1.76,1.76,0,1,0-2-1.42A1.75,1.75,0,0,0,245.85,277.36Z" transform="translate(-230.68 -252.17)"/><circle class="cls-1" cx="19.54" cy="18.14" r="1.75"/><path class="cls-1" d="M256.08,267.64a1.76,1.76,0,1,0-2-1.42A1.76,1.76,0,0,0,256.08,267.64Z" transform="translate(-230.68 -252.17)"/><circle class="cls-1" cx="31.33" cy="10.4" r="1.74"/><circle class="cls-1" cx="38.07" cy="8.23" r="1.74"/><circle class="cls-1" cx="45.1" cy="7.3" r="1.74"/><circle class="cls-1" cx="52.17" cy="7.64" r="1.74"/><path class="cls-1" d="M290.06,263.1a1.72,1.72,0,1,0-2-1.39A1.72,1.72,0,0,0,290.06,263.1Z" transform="translate(-230.68 -252.17)"/><path class="cls-1" d="M296.56,265.9a1.72,1.72,0,1,0-2-1.39A1.72,1.72,0,0,0,296.56,265.9Z" transform="translate(-230.68 -252.17)"/><path class="cls-1" d="M302.46,269.81a1.71,1.71,0,1,0-2-1.38A1.7,1.7,0,0,0,302.46,269.81Z" transform="translate(-230.68 -252.17)"/><circle class="cls-1" cx="76.58" cy="20.86" r="1.71"/><path class="cls-1" d="M292.53,343.3a1.72,1.72,0,1,0-2-1.39A1.72,1.72,0,0,0,292.53,343.3Z" transform="translate(-230.68 -252.17)"/><path class="cls-1" d="M285.68,345.09a1.72,1.72,0,1,0-2-1.39A1.73,1.73,0,0,0,285.68,345.09Z" transform="translate(-230.68 -252.17)"/><circle class="cls-1" cx="47.64" cy="91.91" r="1.71"/><path class="cls-1" d="M271.55,345.35a1.71,1.71,0,1,0-2-1.38A1.71,1.71,0,0,0,271.55,345.35Z" transform="translate(-230.68 -252.17)"/><circle class="cls-1" cx="33.64" cy="89.98" r="1.69"/><path class="cls-1" d="M258,341.22a1.68,1.68,0,1,0-1.95-1.36A1.69,1.69,0,0,0,258,341.22Z" transform="translate(-230.68 -252.17)"/><path class="cls-1" d="M251.91,337.63a1.67,1.67,0,1,0-1.94-1.35A1.68,1.68,0,0,0,251.91,337.63Z" transform="translate(-230.68 -252.17)"/><path class="cls-1" d="M246.43,333.12a1.66,1.66,0,1,0-1.92-1.34A1.66,1.66,0,0,0,246.43,333.12Z" transform="translate(-230.68 -252.17)"/><path class="cls-1" d="M241.73,327.81a1.65,1.65,0,1,0-1.91-1.33A1.64,1.64,0,0,0,241.73,327.81Z" transform="translate(-230.68 -252.17)"/><path class="cls-1" d="M237.91,321.84a1.64,1.64,0,1,0-1.91-1.33A1.64,1.64,0,0,0,237.91,321.84Z" transform="translate(-230.68 -252.17)"/><path class="cls-1" d="M235.07,315.34a1.63,1.63,0,1,0-1.89-1.32A1.63,1.63,0,0,0,235.07,315.34Z" transform="translate(-230.68 -252.17)"/><circle class="cls-1" cx="2.31" cy="54.7" r="1.61"/><circle class="cls-1" cx="1.61" cy="47.65" r="1.61"/><path class="cls-1" d="M233,294.33a1.6,1.6,0,1,0-1.86-1.3A1.61,1.61,0,0,0,233,294.33Z" transform="translate(-230.68 -252.17)"/><path class="cls-1" d="M234.51,287.41a1.6,1.6,0,1,0-1.85-1.3A1.61,1.61,0,0,0,234.51,287.41Z" transform="translate(-230.68 -252.17)"/><path class="cls-1" d="M237.1,280.81a1.59,1.59,0,1,0-.56-3.14,1.59,1.59,0,1,0,.56,3.14Z" transform="translate(-230.68 -252.17)"/><path class="cls-1" d="M240.68,274.7a1.6,1.6,0,1,0-1.85-1.3A1.6,1.6,0,0,0,240.68,274.7Z" transform="translate(-230.68 -252.17)"/><path class="cls-1" d="M245.18,269.22a1.6,1.6,0,1,0-1.86-1.29A1.6,1.6,0,0,0,245.18,269.22Z" transform="translate(-230.68 -252.17)"/><path class="cls-1" d="M250.47,264.51a1.59,1.59,0,1,0-1.85-1.29A1.58,1.58,0,0,0,250.47,264.51Z" transform="translate(-230.68 -252.17)"/><path class="cls-1" d="M256.44,260.69a1.59,1.59,0,1,0-1.85-1.29A1.58,1.58,0,0,0,256.44,260.69Z" transform="translate(-230.68 -252.17)"/><path class="cls-1" d="M262.93,257.87a1.61,1.61,0,1,0-1.87-1.3A1.62,1.62,0,0,0,262.93,257.87Z" transform="translate(-230.68 -252.17)"/><circle class="cls-1" cx="38.82" cy="2.32" r="1.61"/><path class="cls-1" d="M276.84,255.4a1.63,1.63,0,1,0-.57-3.2,1.63,1.63,0,1,0,.57,3.2Z" transform="translate(-230.68 -252.17)"/><path class="cls-1" d="M283.92,255.84a1.65,1.65,0,1,0-1.91-1.33A1.65,1.65,0,0,0,283.92,255.84Z" transform="translate(-230.68 -252.17)"/><path class="cls-1" d="M290.84,257.36a1.65,1.65,0,1,0-1.91-1.33A1.65,1.65,0,0,0,290.84,257.36Z" transform="translate(-230.68 -252.17)"/><path class="cls-1" d="M297.44,260a1.66,1.66,0,1,0-1.93-1.34A1.66,1.66,0,0,0,297.44,260Z" transform="translate(-230.68 -252.17)"/><path class="cls-1" d="M303.55,263.55a1.67,1.67,0,1,0-1.94-1.35A1.68,1.68,0,0,0,303.55,263.55Z" transform="translate(-230.68 -252.17)"/><path class="cls-1" d="M309,268.05a1.68,1.68,0,1,0-1.94-1.36A1.66,1.66,0,0,0,309,268.05Z" transform="translate(-230.68 -252.17)"/><path class="cls-1" d="M313.74,273.36a1.69,1.69,0,1,0-2-1.37A1.69,1.69,0,0,0,313.74,273.36Z" transform="translate(-230.68 -252.17)"/><path class="cls-1" d="M260.2,346.91a.2.2,0,0,0,.17-.23.21.21,0,0,0-.24-.17.21.21,0,0,0-.16.24A.2.2,0,0,0,260.2,346.91Z" transform="translate(-230.68 -252.17)"/><path class="cls-1" d="M370.68,291.07a8.14,8.14,0,0,0-2.42,6v20.2h6.56V310h17.5v7.3h6.56V288.53H376.57A8.06,8.06,0,0,0,370.68,291.07Zm21.64,12.34h-17.5v-6.78a1.55,1.55,0,0,1,.51-1.12,1.72,1.72,0,0,1,1.24-.43h15.75Z" transform="translate(-230.68 -252.17)"/><path class="cls-1" d="M404,317.27h16.58q7.92,0,11.74-5.68,3.13-4.65,3.14-12.2V288.53H404Zm6.61-22.18h17.65V299q0,11.26-8.27,11.27H410.6Z" transform="translate(-230.68 -252.17)"/><polygon class="cls-1" points="226.88 57.76 215.79 36.36 208.4 36.36 223.26 65.09 230.49 65.09 245.35 36.36 237.96 36.36 226.88 57.76"/><rect class="cls-1" x="248.98" y="36.36" width="6.56" height="28.73"/><path class="cls-1" d="M497.51,299.8V297a2.16,2.16,0,0,1,2.05-1.9h52.29V308.3h6.57V288.53H499.56a8,8,0,0,0-5.83,2.49,8.09,8.09,0,0,0-2.39,6v9h23.42V309a2.22,2.22,0,0,1-.64,1.08,1.88,1.88,0,0,1-1.39.59H491.36v6.57h22.15a8,8,0,0,0,5.84-2.49,8.09,8.09,0,0,0,2.38-6l0-9Z" transform="translate(-230.68 -252.17)"/><path class="cls-1" d="M626.11,288.53v14.61a1.54,1.54,0,0,1-.52,1.12,1.7,1.7,0,0,1-1.24.43H607.23V288.53H571.88A7.92,7.92,0,0,0,566,291a8.08,8.08,0,0,0-2.46,5.87V310.7H537.17v0h-2a1.75,1.75,0,0,1-1.24-.43,1.62,1.62,0,0,1-.51-1.12V297.68h-6.57v11.05a8.11,8.11,0,0,0,2.43,6,8,8,0,0,0,5.89,2.55h34.93V296.89a1.66,1.66,0,0,1,.55-1.24,1.64,1.64,0,0,1,1.24-.56h23.67V295h5.11v16.25h12.72v6H620v-6h4.39a8.06,8.06,0,0,0,5.9-2.55,8.14,8.14,0,0,0,2.42-6V288.53Z" transform="translate(-230.68 -252.17)"/><path class="cls-2" d="M299.63,299.8V297a2.16,2.16,0,0,1,2.05-1.9h22.16v-6.56H301.68a8,8,0,0,0-5.83,2.49,8.08,8.08,0,0,0-2.38,6v9h23.41V309a2.27,2.27,0,0,1-.63,1.08,1.9,1.9,0,0,1-1.4.59H293.49v6.57h22.15a8,8,0,0,0,5.83-2.49,8.1,8.1,0,0,0,2.39-6l0-9Z" transform="translate(-230.68 -252.17)"/><path class="cls-2" d="M336,310.29a1.57,1.57,0,0,1-.51-1.12V288.53H329v20.2a8.49,8.49,0,0,0,8.31,8.54h20.84v-6.55H337.28A1.69,1.69,0,0,1,336,310.29Z" transform="translate(-230.68 -252.17)"/><path class="cls-2" d="M288.35,288.53H259.21v20.2a8.49,8.49,0,0,0,8.31,8.54h20.83v-6.55H267.52a1.67,1.67,0,0,1-1.24-.43,1.57,1.57,0,0,1-.51-1.12v-3h22.58v-6.58H265.77v-4.52H290s1.3-5.38,6.08-6.55Z" transform="translate(-230.68 -252.17)"/><path class="cls-1" d="M589,299.94a1.63,1.63,0,0,1-1.62,1.72H572.68v6.58h11.15l4.81,9h6.54l-4.79-9.58a8.17,8.17,0,0,0,2.78-1.87,8,8,0,0,0,2.38-5.88v-2.11H589Z" transform="translate(-230.68 -252.17)"/></svg>